<svg xmlns="http://www.w3.org/2000/svg" width="1120" height="520" viewBox="0 0 1120 520" role="img" aria-labelledby="title desc">
  <title id="title">Rejection sampling decomposition</title>
  <desc id="desc">Target probability is decomposed into accepted draft mass and residual mass.</desc>
  <defs>
    <style>
      .axis { stroke: #344054; stroke-width: 2; }
      .grid { stroke: #e4e7ec; stroke-width: 1; }
      .p { fill: #f97316; opacity: 0.72; }
      .q { fill: #2e90fa; opacity: 0.62; }
      .min { fill: #12b76a; opacity: 0.75; }
      .res { fill: #f04438; opacity: 0.75; }
      .text { font-family: Arial, sans-serif; fill: #182230; font-size: 18px; }
      .small { font-family: Arial, sans-serif; fill: #475467; font-size: 14px; }
      .mono { font-family: Consolas, monospace; fill: #344054; font-size: 15px; }
    </style>
  </defs>

  <rect x="20" y="30" width="1080" height="460" fill="#ffffff" stroke="#d0d5dd"/>
  <text x="50" y="70" class="text" font-weight="700">Why rejection sampling recovers the target distribution</text>
  <text x="50" y="96" class="small">For each token, target probability is rebuilt from accepted draft mass plus missing target mass.</text>

  <line x1="80" y1="390" x2="600" y2="390" class="axis"/>
  <line x1="80" y1="150" x2="80" y2="390" class="axis"/>
  <line x1="80" y1="330" x2="600" y2="330" class="grid"/>
  <line x1="80" y1="270" x2="600" y2="270" class="grid"/>
  <line x1="80" y1="210" x2="600" y2="210" class="grid"/>

  <text x="64" y="143" class="small">prob.</text>
  <text x="110" y="420" class="small">a</text>
  <text x="210" y="420" class="small">b</text>
  <text x="310" y="420" class="small">c</text>
  <text x="410" y="420" class="small">d</text>
  <text x="510" y="420" class="small">e</text>

  <rect x="105" y="250" width="34" height="140" class="q"/>
  <rect x="145" y="295" width="34" height="95" class="p"/>
  <rect x="205" y="310" width="34" height="80" class="q"/>
  <rect x="245" y="230" width="34" height="160" class="p"/>
  <rect x="305" y="205" width="34" height="185" class="q"/>
  <rect x="345" y="245" width="34" height="145" class="p"/>
  <rect x="405" y="320" width="34" height="70" class="q"/>
  <rect x="445" y="275" width="34" height="115" class="p"/>
  <rect x="505" y="285" width="34" height="105" class="q"/>
  <rect x="545" y="285" width="34" height="105" class="p"/>

  <rect x="690" y="145" width="360" height="110" fill="#f8fafc" stroke="#98a2b3" rx="8"/>
  <text x="720" y="178" class="text" font-weight="700">Accepted mass</text>
  <text x="720" y="208" class="mono">accepted part</text>
  <text x="720" y="232" class="mono">= smaller of target p and draft q</text>

  <rect x="690" y="285" width="360" height="125" fill="#f8fafc" stroke="#98a2b3" rx="8"/>
  <text x="720" y="318" class="text" font-weight="700">Residual mass after rejection</text>
  <text x="720" y="348" class="mono">missing part</text>
  <text x="720" y="372" class="mono">= target p minus draft q, if positive</text>
  <text x="720" y="396" class="mono">sample here only after rejection</text>

  <rect x="107" y="295" width="30" height="95" class="min"/>
  <rect x="247" y="310" width="30" height="80" class="min"/>
  <rect x="347" y="245" width="30" height="145" class="min"/>
  <rect x="447" y="320" width="30" height="70" class="min"/>
  <rect x="547" y="285" width="30" height="105" class="min"/>

  <rect x="247" y="230" width="30" height="80" class="res"/>
  <rect x="447" y="275" width="30" height="45" class="res"/>

  <rect x="80" y="455" width="18" height="18" class="q"/>
  <text x="105" y="469" class="small">draft q</text>
  <rect x="180" y="455" width="18" height="18" class="p"/>
  <text x="205" y="469" class="small">target p</text>
  <rect x="290" y="455" width="18" height="18" class="min"/>
  <text x="315" y="469" class="small">accepted part</text>
  <rect x="465" y="455" width="18" height="18" class="res"/>
  <text x="490" y="469" class="small">missing target part</text>
</svg>
