<?xml version="1.0" encoding="UTF-8" standalone="no"?>
<!DOCTYPE svg PUBLIC "-//W3C//DTD SVG 1.1//EN"
 "http://www.w3.org/Graphics/SVG/1.1/DTD/svg11.dtd">
<!-- Generated by graphviz version 14.1.3 (20260303.0454)
 -->
<!-- Title: GLM47Flash Pages: 1 -->
<svg width="677pt" height="2631pt"
 viewBox="0.00 0.00 677.00 2631.00" xmlns="http://www.w3.org/2000/svg" xmlns:xlink="http://www.w3.org/1999/xlink">
<g id="graph0" class="graph" transform="scale(1 1) rotate(0) translate(21.6 2609.2)">
<title>GLM47Flash</title>
<polygon fill="#f6f8fa" stroke="none" points="-21.6,21.6 -21.6,-2609.2 655.6,-2609.2 655.6,21.6 -21.6,21.6"/>
<text xml:space="preserve" text-anchor="middle" x="317" y="-2562" font-family="Microsoft YaHei" font-size="24.00" fill="#17202a">GLM&#45;4.7&#45;Flash on SGLang Ascend NPU</text>
<text xml:space="preserve" text-anchor="middle" x="317" y="-2533.2" font-family="Microsoft YaHei" font-size="24.00" fill="#17202a">模型结构、关键张量维度与 Prefill / Decode 数据路径</text>
<g id="clust1" class="cluster">
<title>cluster_legend</title>
<path fill="#ffffff" stroke="#d0d5dd" stroke-width="1.1" d="M84,-2402.8C84,-2402.8 610,-2402.8 610,-2402.8 616,-2402.8 622,-2408.8 622,-2414.8 622,-2414.8 622,-2502 622,-2502 622,-2508 616,-2514 610,-2514 610,-2514 84,-2514 84,-2514 78,-2514 72,-2508 72,-2502 72,-2502 72,-2414.8 72,-2414.8 72,-2408.8 78,-2402.8 84,-2402.8"/>
<text xml:space="preserve" text-anchor="middle" x="347" y="-2488.4" font-family="Microsoft YaHei" font-size="24.00" fill="#17202a">维度约定（基线：TP=4）</text>
</g>
<g id="clust2" class="cluster">
<title>cluster_top</title>
<path fill="#ffffff" stroke="#b8c2cc" stroke-width="1.3" d="M230,-1594.4C230,-1594.4 464,-1594.4 464,-1594.4 470,-1594.4 476,-1600.4 476,-1606.4 476,-1606.4 476,-2372.8 476,-2372.8 476,-2378.8 470,-2384.8 464,-2384.8 464,-2384.8 230,-2384.8 230,-2384.8 224,-2384.8 218,-2378.8 218,-2372.8 218,-2372.8 218,-1606.4 218,-1606.4 218,-1600.4 224,-1594.4 230,-1594.4"/>
<text xml:space="preserve" text-anchor="middle" x="347" y="-2359.2" font-family="Microsoft YaHei" font-size="24.00" fill="#17202a">A. 端到端模型主干</text>
</g>
<g id="clust3" class="cluster">
<title>cluster_decoder</title>
<path fill="#ffffff" stroke="#b8c2cc" stroke-width="1.3" d="M20,-351.6C20,-351.6 614,-351.6 614,-351.6 620,-351.6 626,-357.6 626,-363.6 626,-363.6 626,-1564.4 626,-1564.4 626,-1570.4 620,-1576.4 614,-1576.4 614,-1576.4 20,-1576.4 20,-1576.4 14,-1576.4 8,-1570.4 8,-1564.4 8,-1564.4 8,-363.6 8,-363.6 8,-357.6 14,-351.6 20,-351.6"/>
<text xml:space="preserve" text-anchor="middle" x="317" y="-1550.8" font-family="Microsoft YaHei" font-size="24.00" fill="#17202a">B. 放大一个 Glm4MoeLiteDecoderLayer</text>
</g>
<g id="clust4" class="cluster">
<title>cluster_nextn</title>
<path fill="#ffffff" stroke="#b8c2cc" stroke-width="1.3" d="M208,-8C208,-8 488,-8 488,-8 494,-8 500,-14 500,-20 500,-20 500,-321.6 500,-321.6 500,-327.6 494,-333.6 488,-333.6 488,-333.6 208,-333.6 208,-333.6 202,-333.6 196,-327.6 196,-321.6 196,-321.6 196,-20 196,-20 196,-14 202,-8 208,-8"/>
<text xml:space="preserve" text-anchor="middle" x="348" y="-308" font-family="Microsoft YaHei" font-size="24.00" fill="#17202a">C. 可选 NextN / EAGLE Draft</text>
</g>
<!-- legend -->
<g id="node1" class="node">
<title>legend</title>
<text xml:space="preserve" text-anchor="start" x="90.38" y="-2450.3" font-family="Microsoft YaHei" font-weight="bold" font-size="11.00" fill="#17202a">T</text>
<text xml:space="preserve" text-anchor="start" x="97.71" y="-2450.3" font-family="Microsoft YaHei" font-size="11.00" fill="#17202a">：本 rank 本轮 token 数</text>
<text xml:space="preserve" text-anchor="start" x="206.19" y="-2450.3" font-family="Microsoft YaHei" font-weight="bold" font-size="11.00" fill="#17202a">B</text>
<text xml:space="preserve" text-anchor="start" x="213.53" y="-2450.3" font-family="Microsoft YaHei" font-size="11.00" fill="#17202a">：decode batch size</text>
<text xml:space="preserve" text-anchor="start" x="326.42" y="-2450.3" font-family="Microsoft YaHei" font-weight="bold" font-size="11.00" fill="#17202a">D=2048</text>
<text xml:space="preserve" text-anchor="start" x="362.63" y="-2450.3" font-family="Microsoft YaHei" font-size="11.00" fill="#17202a">：hidden size</text>
<text xml:space="preserve" text-anchor="start" x="447.49" y="-2450.3" font-family="Microsoft YaHei" font-weight="bold" font-size="11.00" fill="#17202a">H=20 / Htp=5</text>
<text xml:space="preserve" text-anchor="start" x="511.98" y="-2450.3" font-family="Microsoft YaHei" font-size="11.00" fill="#17202a">：全局 / 单 rank heads</text>
<text xml:space="preserve" text-anchor="start" x="102.06" y="-2425.1" font-family="Microsoft YaHei" font-weight="bold" font-size="11.00" fill="#17202a">Rq=768</text>
<text xml:space="preserve" text-anchor="start" x="138.89" y="-2425.1" font-family="Microsoft YaHei" font-size="11.00" fill="#17202a">：Q latent</text>
<text xml:space="preserve" text-anchor="start" x="205.95" y="-2425.1" font-family="Microsoft YaHei" font-weight="bold" font-size="11.00" fill="#17202a">Rkv=512</text>
<text xml:space="preserve" text-anchor="start" x="248.28" y="-2425.1" font-family="Microsoft YaHei" font-size="11.00" fill="#17202a">：KV latent</text>
<text xml:space="preserve" text-anchor="start" x="311.6" y="-2425.1" font-family="Microsoft YaHei" font-weight="bold" font-size="11.00" fill="#17202a">Drope=64</text>
<text xml:space="preserve" text-anchor="start" x="358.19" y="-2425.1" font-family="Microsoft YaHei" font-size="11.00" fill="#17202a">：RoPE head dim</text>
<text xml:space="preserve" text-anchor="start" x="476.2" y="-2425.1" font-family="Microsoft YaHei" font-weight="bold" font-size="11.00" fill="#17202a">Dnope=192 / Dh=256</text>
</g>
<!-- request -->
<g id="node2" class="node">
<title>request</title>
<polygon fill="#f2f4f7" stroke="none" points="286.31,-2255.2 286.31,-2340 407.69,-2340 407.69,-2255.2 286.31,-2255.2"/>
<polygon fill="none" stroke="#98a2b3" points="286.31,-2310.8 286.31,-2340 407.69,-2340 407.69,-2310.8 286.31,-2310.8"/>
<text xml:space="preserve" text-anchor="start" x="326.38" y="-2323.1" font-family="Microsoft YaHei" font-weight="bold" font-size="11.00" fill="#17202a">请求与调度</text>
<polygon fill="none" stroke="#98a2b3" points="286.31,-2255.2 286.31,-2310.8 407.69,-2310.8 407.69,-2255.2 286.31,-2255.2"/>
<text xml:space="preserve" text-anchor="start" x="318.13" y="-2291.8" font-family="Microsoft YaHei" font-size="11.00" fill="#17202a">input_ids [T]</text>
<text xml:space="preserve" text-anchor="start" x="318.74" y="-2278.6" font-family="Microsoft YaHei" font-size="11.00" fill="#17202a">positions [T]</text>
<text xml:space="preserve" text-anchor="start" x="294.31" y="-2265.4" font-family="Microsoft YaHei" font-size="11.00" fill="#17202a">ForwardBatch metadata</text>
</g>
<!-- legend&#45;&gt;request -->
<!-- embed -->
<g id="node3" class="node">
<title>embed</title>
<polygon fill="#e8f5f3" stroke="none" points="278.5,-2135.4 278.5,-2220.2 415.5,-2220.2 415.5,-2135.4 278.5,-2135.4"/>
<polygon fill="none" stroke="#378a8a" points="278.5,-2191 278.5,-2220.2 415.5,-2220.2 415.5,-2191 278.5,-2191"/>
<text xml:space="preserve" text-anchor="start" x="286.5" y="-2203.3" font-family="Microsoft YaHei" font-weight="bold" font-size="11.00" fill="#17202a">VocabParallelEmbedding</text>
<polygon fill="none" stroke="#378a8a" points="278.5,-2135.4 278.5,-2191 415.5,-2191 415.5,-2135.4 278.5,-2135.4"/>
<text xml:space="preserve" text-anchor="start" x="294.29" y="-2172" font-family="Microsoft YaHei" font-size="11.00" fill="#17202a">全局 W: [154880, 2048]</text>
<text xml:space="preserve" text-anchor="start" x="286.5" y="-2158.8" font-family="Microsoft YaHei" font-size="11.00" fill="#17202a">TP4 本地 W: [38720, 2048]</text>
<text xml:space="preserve" text-anchor="start" x="305.9" y="-2145.6" font-family="Microsoft YaHei" font-size="11.00" fill="#17202a">输出 X0: [T, 2048]</text>
</g>
<!-- request&#45;&gt;embed -->
<g id="edge1" class="edge">
<title>request&#45;&gt;embed</title>
<path fill="none" stroke="#667085" stroke-width="1.3" d="M347,-2255.36C347,-2255.36 347,-2229.23 347,-2229.23"/>
<polygon fill="#667085" stroke="#667085" stroke-width="1.3" points="349.52,-2229.23 347,-2222.03 344.48,-2229.23 349.52,-2229.23"/>
</g>
<!-- layer0 -->
<g id="node4" class="node">
<title>layer0</title>
<polygon fill="#eaf4f8" stroke="none" points="272.35,-2028.8 272.35,-2100.4 421.65,-2100.4 421.65,-2028.8 272.35,-2028.8"/>
<polygon fill="none" stroke="#2f80a0" points="272.35,-2071.2 272.35,-2100.4 421.65,-2100.4 421.65,-2071.2 272.35,-2071.2"/>
<text xml:space="preserve" text-anchor="start" x="307.9" y="-2083.5" font-family="Microsoft YaHei" font-weight="bold" font-size="11.00" fill="#17202a">Decoder Layer 0</text>
<polygon fill="none" stroke="#2f80a0" points="272.35,-2028.8 272.35,-2071.2 421.65,-2071.2 421.65,-2028.8 272.35,-2028.8"/>
<text xml:space="preserve" text-anchor="start" x="280.35" y="-2052.2" font-family="Microsoft YaHei" font-size="11.00" fill="#17202a">MLA Attention + Dense MLP</text>
<text xml:space="preserve" text-anchor="start" x="300.52" y="-2039" font-family="Microsoft YaHei" font-size="11.00" fill="#17202a">[T,2048] &#45;&gt; [T,2048]</text>
</g>
<!-- embed&#45;&gt;layer0 -->
<g id="edge2" class="edge">
<title>embed&#45;&gt;layer0</title>
<path fill="none" stroke="#667085" stroke-width="1.3" d="M347,-2135.65C347,-2135.65 347,-2109.28 347,-2109.28"/>
<polygon fill="#667085" stroke="#667085" stroke-width="1.3" points="349.52,-2109.28 347,-2102.08 344.48,-2109.28 349.52,-2109.28"/>
</g>
<!-- layers146 -->
<g id="node5" class="node">
<title>layers146</title>
<polygon fill="#edf7ee" stroke="none" points="225.57,-1922.2 225.57,-1993.8 468.43,-1993.8 468.43,-1922.2 225.57,-1922.2"/>
<polygon fill="none" stroke="#4e8b57" points="225.57,-1964.6 225.57,-1993.8 468.43,-1993.8 468.43,-1964.6 225.57,-1964.6"/>
<text xml:space="preserve" text-anchor="start" x="268.64" y="-1976.9" font-family="Microsoft YaHei" font-weight="bold" font-size="11.00" fill="#17202a">Decoder Layers 1 ... 46（共 46 层）</text>
<polygon fill="none" stroke="#4e8b57" points="225.57,-1922.2 225.57,-1964.6 468.43,-1964.6 468.43,-1922.2 225.57,-1922.2"/>
<text xml:space="preserve" text-anchor="start" x="233.57" y="-1945.6" font-family="Microsoft YaHei" font-size="11.00" fill="#17202a">MLA Attention + 64E Top&#45;4 MoE + Shared Expert</text>
<text xml:space="preserve" text-anchor="start" x="290.9" y="-1932.4" font-family="Microsoft YaHei" font-size="11.00" fill="#17202a">每层 [T,2048] &#45;&gt; [T,2048]</text>
</g>
<!-- layer0&#45;&gt;layers146 -->
<g id="edge3" class="edge">
<title>layer0&#45;&gt;layers146</title>
<path fill="none" stroke="#667085" stroke-width="1.3" d="M347,-2028.81C347,-2028.81 347,-2002.68 347,-2002.68"/>
<polygon fill="#667085" stroke="#667085" stroke-width="1.3" points="349.52,-2002.68 347,-1995.48 344.48,-2002.68 349.52,-2002.68"/>
</g>
<!-- finalnorm -->
<g id="node6" class="node">
<title>finalnorm</title>
<polygon fill="#f2eff8" stroke="none" points="292.52,-1828.8 292.52,-1887.2 401.48,-1887.2 401.48,-1828.8 292.52,-1828.8"/>
<polygon fill="none" stroke="#7a6f9b" points="292.52,-1858 292.52,-1887.2 401.48,-1887.2 401.48,-1858 292.52,-1858"/>
<text xml:space="preserve" text-anchor="start" x="307.43" y="-1870.3" font-family="Microsoft YaHei" font-weight="bold" font-size="11.00" fill="#17202a">Final RMSNorm</text>
<polygon fill="none" stroke="#7a6f9b" points="292.52,-1828.8 292.52,-1858 401.48,-1858 401.48,-1828.8 292.52,-1828.8"/>
<text xml:space="preserve" text-anchor="start" x="300.52" y="-1839" font-family="Microsoft YaHei" font-size="11.00" fill="#17202a">[T,2048] &#45;&gt; [T,2048]</text>
</g>
<!-- layers146&#45;&gt;finalnorm -->
<g id="edge4" class="edge">
<title>layers146&#45;&gt;finalnorm</title>
<path fill="none" stroke="#667085" stroke-width="1.3" d="M347,-1922.46C347,-1922.46 347,-1896.33 347,-1896.33"/>
<polygon fill="#667085" stroke="#667085" stroke-width="1.3" points="349.52,-1896.33 347,-1889.13 344.48,-1896.33 349.52,-1896.33"/>
</g>
<!-- lmhead -->
<g id="node7" class="node">
<title>lmhead</title>
<polygon fill="#f2eff8" stroke="none" points="255.83,-1709 255.83,-1793.8 438.17,-1793.8 438.17,-1709 255.83,-1709"/>
<polygon fill="none" stroke="#7a6f9b" points="255.83,-1764.6 255.83,-1793.8 438.17,-1793.8 438.17,-1764.6 255.83,-1764.6"/>
<text xml:space="preserve" text-anchor="start" x="263.83" y="-1776.9" font-family="Microsoft YaHei" font-weight="bold" font-size="11.00" fill="#17202a">ParallelLMHead + LogitsProcessor</text>
<polygon fill="none" stroke="#7a6f9b" points="255.83,-1709 255.83,-1764.6 438.17,-1764.6 438.17,-1709 255.83,-1709"/>
<text xml:space="preserve" text-anchor="start" x="263.83" y="-1745.6" font-family="Microsoft YaHei" font-size="11.00" fill="#17202a">TP4 本地 W: [38720,2048]</text>
<text xml:space="preserve" text-anchor="start" x="272.23" y="-1732.4" font-family="Microsoft YaHei" font-size="11.00" fill="#17202a">local logits: [B,38720]</text>
<text xml:space="preserve" text-anchor="start" x="274.53" y="-1719.2" font-family="Microsoft YaHei" font-size="11.00" fill="#17202a">gather 后: [B,154880]</text>
</g>
<!-- finalnorm&#45;&gt;lmhead -->
<g id="edge5" class="edge">
<title>finalnorm&#45;&gt;lmhead</title>
<path fill="none" stroke="#667085" stroke-width="1.3" d="M347,-1828.87C347,-1828.87 347,-1802.85 347,-1802.85"/>
<polygon fill="#667085" stroke="#667085" stroke-width="1.3" points="349.52,-1802.85 347,-1795.65 344.48,-1802.85 349.52,-1802.85"/>
</g>
<!-- sampler -->
<g id="node8" class="node">
<title>sampler</title>
<polygon fill="#fff3e8" stroke="none" points="261.87,-1602.4 261.87,-1674 432.13,-1674 432.13,-1602.4 261.87,-1602.4"/>
<polygon fill="none" stroke="#b26a3c" points="261.87,-1644.8 261.87,-1674 432.13,-1674 432.13,-1644.8 261.87,-1644.8"/>
<text xml:space="preserve" text-anchor="start" x="300.86" y="-1657.1" font-family="Microsoft YaHei" font-weight="bold" font-size="11.00" fill="#17202a">Sampler / Response</text>
<polygon fill="none" stroke="#b26a3c" points="261.87,-1602.4 261.87,-1644.8 432.13,-1644.8 432.13,-1602.4 261.87,-1602.4"/>
<text xml:space="preserve" text-anchor="start" x="304.69" y="-1625.8" font-family="Microsoft YaHei" font-size="11.00" fill="#17202a">next_token_ids [B]</text>
<text xml:space="preserve" text-anchor="start" x="269.87" y="-1612.6" font-family="Microsoft YaHei" font-size="11.00" fill="#17202a">detokenize / reasoning / tool parser</text>
</g>
<!-- lmhead&#45;&gt;sampler -->
<g id="edge6" class="edge">
<title>lmhead&#45;&gt;sampler</title>
<path fill="none" stroke="#667085" stroke-width="1.3" d="M347,-1709.25C347,-1709.25 347,-1682.88 347,-1682.88"/>
<polygon fill="#667085" stroke="#667085" stroke-width="1.3" points="349.52,-1682.88 347,-1675.68 344.48,-1682.88 349.52,-1682.88"/>
</g>
<!-- dec_in -->
<g id="node9" class="node">
<title>dec_in</title>
<polygon fill="#f8f9fb" stroke="none" points="283.03,-1464 283.03,-1531.6 410.97,-1531.6 410.97,-1464 283.03,-1464"/>
<polygon fill="none" stroke="#98a2b3" points="283.03,-1504.4 283.03,-1531.6 410.97,-1531.6 410.97,-1504.4 283.03,-1504.4"/>
<text xml:space="preserve" text-anchor="start" x="321.18" y="-1515.7" font-family="Microsoft YaHei" font-weight="bold" font-size="11.00" fill="#17202a">layer input</text>
<polygon fill="none" stroke="#98a2b3" points="283.03,-1464 283.03,-1504.4 410.97,-1504.4 410.97,-1464 283.03,-1464"/>
<text xml:space="preserve" text-anchor="start" x="311.26" y="-1486.4" font-family="Microsoft YaHei" font-size="11.00" fill="#17202a">hidden [T,2048]</text>
<text xml:space="preserve" text-anchor="start" x="290.03" y="-1473.2" font-family="Microsoft YaHei" font-size="11.00" fill="#17202a">residual [T,2048] 或 None</text>
</g>
<!-- sampler&#45;&gt;dec_in -->
<!-- norm1 -->
<g id="node10" class="node">
<title>norm1</title>
<polygon fill="#f2eff8" stroke="none" points="272.02,-1361.4 272.02,-1429 421.98,-1429 421.98,-1361.4 272.02,-1361.4"/>
<polygon fill="none" stroke="#7a6f9b" points="272.02,-1401.8 272.02,-1429 421.98,-1429 421.98,-1401.8 272.02,-1401.8"/>
<text xml:space="preserve" text-anchor="start" x="305.06" y="-1413.1" font-family="Microsoft YaHei" font-weight="bold" font-size="11.00" fill="#17202a">Add + RMSNorm</text>
<polygon fill="none" stroke="#7a6f9b" points="272.02,-1361.4 272.02,-1401.8 421.98,-1401.8 421.98,-1361.4 272.02,-1361.4"/>
<text xml:space="preserve" text-anchor="start" x="279.02" y="-1383.8" font-family="Microsoft YaHei" font-size="11.00" fill="#17202a">torch_npu.npu_add_rms_norm</text>
<text xml:space="preserve" text-anchor="start" x="317.98" y="-1370.6" font-family="Microsoft YaHei" font-size="11.00" fill="#17202a">输出 [T,2048]</text>
</g>
<!-- dec_in&#45;&gt;norm1 -->
<g id="edge7" class="edge">
<title>dec_in&#45;&gt;norm1</title>
<path fill="none" stroke="#667085" stroke-width="1.3" d="M347,-1464.2C347,-1464.2 347,-1438.04 347,-1438.04"/>
<polygon fill="#667085" stroke="#667085" stroke-width="1.3" points="349.52,-1438.04 347,-1430.84 344.48,-1438.04 349.52,-1438.04"/>
</g>
<!-- fused_a -->
<g id="node11" class="node">
<title>fused_a</title>
<polygon fill="#fff8de" stroke="none" points="271.24,-1258.8 271.24,-1326.4 422.76,-1326.4 422.76,-1258.8 271.24,-1258.8"/>
<polygon fill="none" stroke="#d69e2e" points="271.24,-1299.2 271.24,-1326.4 422.76,-1326.4 422.76,-1299.2 271.24,-1299.2"/>
<text xml:space="preserve" text-anchor="start" x="278.24" y="-1310.5" font-family="Microsoft YaHei" font-weight="bold" font-size="11.00" fill="#17202a">fused_qkv_a_proj_with_mqa</text>
<polygon fill="none" stroke="#d69e2e" points="271.24,-1258.8 271.24,-1299.2 422.76,-1299.2 422.76,-1258.8 271.24,-1258.8"/>
<text xml:space="preserve" text-anchor="start" x="278.24" y="-1281.2" font-family="Microsoft YaHei" font-size="11.00" fill="#17202a">W: [1344,2048]（每 rank 复制）</text>
<text xml:space="preserve" text-anchor="start" x="300.04" y="-1268" font-family="Microsoft YaHei" font-size="11.00" fill="#17202a">[T,2048] &#45;&gt; [T,1344]</text>
</g>
<!-- norm1&#45;&gt;fused_a -->
<g id="edge8" class="edge">
<title>norm1&#45;&gt;fused_a</title>
<path fill="none" stroke="#667085" stroke-width="1.3" d="M347,-1361.6C347,-1361.6 347,-1335.44 347,-1335.44"/>
<polygon fill="#667085" stroke="#667085" stroke-width="1.3" points="349.52,-1335.44 347,-1328.24 344.48,-1335.44 349.52,-1335.44"/>
</g>
<!-- q_latent -->
<g id="node12" class="node">
<title>q_latent</title>
<polygon fill="#fff8de" stroke="none" points="228.24,-1120 228.24,-1214 399.76,-1214 399.76,-1120 228.24,-1120"/>
<polygon fill="none" stroke="#d69e2e" points="228.24,-1186.8 228.24,-1214 399.76,-1214 399.76,-1186.8 228.24,-1186.8"/>
<text xml:space="preserve" text-anchor="start" x="285.28" y="-1198.1" font-family="Microsoft YaHei" font-weight="bold" font-size="11.00" fill="#17202a">Q latent 分支</text>
<polygon fill="none" stroke="#d69e2e" points="228.24,-1120 228.24,-1186.8 399.76,-1186.8 399.76,-1120 228.24,-1120"/>
<text xml:space="preserve" text-anchor="start" x="255.9" y="-1168.8" font-family="Microsoft YaHei" font-size="11.00" fill="#17202a">q_a [T,768] &#45;&gt; RMSNorm</text>
<text xml:space="preserve" text-anchor="start" x="261.46" y="-1155.6" font-family="Microsoft YaHei" font-size="11.00" fill="#17202a">q_b local W [1280,768]</text>
<text xml:space="preserve" text-anchor="start" x="289.1" y="-1142.4" font-family="Microsoft YaHei" font-size="11.00" fill="#17202a">q [T,5,256]</text>
<text xml:space="preserve" text-anchor="start" x="235.24" y="-1129.2" font-family="Microsoft YaHei" font-size="11.00" fill="#17202a">= q_nope [T,5,192] + q_pe [T,5,64]</text>
</g>
<!-- fused_a&#45;&gt;q_latent -->
<g id="edge9" class="edge">
<title>fused_a&#45;&gt;q_latent</title>
<path fill="none" stroke="#667085" stroke-width="1.3" d="M335.5,-1258.94C335.5,-1258.94 335.5,-1223.14 335.5,-1223.14"/>
<polygon fill="#667085" stroke="#667085" stroke-width="1.3" points="338.02,-1223.14 335.5,-1215.94 332.98,-1223.14 338.02,-1223.14"/>
<text xml:space="preserve" text-anchor="middle" x="338.13" y="-1233.7" font-family="Microsoft YaHei" font-size="9.00" fill="#475467">split 前 768</text>
</g>
<!-- kv_latent -->
<g id="node13" class="node">
<title>kv_latent</title>
<polygon fill="#fff0ec" stroke="none" points="419.54,-1126.6 419.54,-1207.4 610.46,-1207.4 610.46,-1126.6 419.54,-1126.6"/>
<polygon fill="none" stroke="#c8705a" points="419.54,-1180.2 419.54,-1207.4 610.46,-1207.4 610.46,-1180.2 419.54,-1180.2"/>
<text xml:space="preserve" text-anchor="start" x="482.31" y="-1191.5" font-family="Microsoft YaHei" font-weight="bold" font-size="11.00" fill="#17202a">KV latent 分支</text>
<polygon fill="none" stroke="#c8705a" points="419.54,-1126.6 419.54,-1180.2 610.46,-1180.2 610.46,-1126.6 419.54,-1126.6"/>
<text xml:space="preserve" text-anchor="start" x="484.76" y="-1162.2" font-family="Microsoft YaHei" font-size="11.00" fill="#17202a">latent [T,576]</text>
<text xml:space="preserve" text-anchor="start" x="450.3" y="-1149" font-family="Microsoft YaHei" font-size="11.00" fill="#17202a">= cKV [T,512] + k_pe [T,64]</text>
<text xml:space="preserve" text-anchor="start" x="426.54" y="-1135.8" font-family="Microsoft YaHei" font-size="11.00" fill="#17202a">cKV 经 RMSNorm；q_pe/k_pe 经 RoPE</text>
</g>
<!-- fused_a&#45;&gt;kv_latent -->
<g id="edge10" class="edge">
<title>fused_a&#45;&gt;kv_latent</title>
<path fill="none" stroke="#667085" stroke-width="1.3" d="M422.65,-1293C425.67,-1293 427.44,-1293 427.44,-1293 427.44,-1293 427.44,-1216.38 427.44,-1216.38"/>
<polygon fill="#667085" stroke="#667085" stroke-width="1.3" points="429.96,-1216.38 427.44,-1209.18 424.92,-1216.38 429.96,-1216.38"/>
<text xml:space="preserve" text-anchor="middle" x="471.13" y="-1233.7" font-family="Microsoft YaHei" font-size="9.00" fill="#475467">split 后 576</text>
</g>
<!-- prefill -->
<g id="node15" class="node">
<title>prefill</title>
<polygon fill="#eaf4f8" stroke="none" points="229.71,-987.8 229.71,-1068.6 354.29,-1068.6 354.29,-987.8 229.71,-987.8"/>
<polygon fill="none" stroke="#2f80a0" points="229.71,-1041.4 229.71,-1068.6 354.29,-1068.6 354.29,-1041.4 229.71,-1041.4"/>
<text xml:space="preserve" text-anchor="start" x="246.64" y="-1052.7" font-family="Microsoft YaHei" font-weight="bold" font-size="11.00" fill="#17202a">Prefill: MHA_NPU</text>
<polygon fill="none" stroke="#2f80a0" points="229.71,-987.8 229.71,-1041.4 354.29,-1041.4 354.29,-987.8 229.71,-987.8"/>
<text xml:space="preserve" text-anchor="start" x="236.71" y="-1023.4" font-family="Microsoft YaHei" font-size="11.00" fill="#17202a">kv_b local W [2240,512]</text>
<text xml:space="preserve" text-anchor="start" x="237.01" y="-1010.2" font-family="Microsoft YaHei" font-size="11.00" fill="#17202a">K [T,5,256], V [T,5,256]</text>
<text xml:space="preserve" text-anchor="start" x="241.09" y="-997" font-family="Microsoft YaHei" font-size="11.00" fill="#17202a">FIA &#45;&gt; Oattn [T,5,256]</text>
</g>
<!-- q_latent&#45;&gt;prefill -->
<g id="edge12" class="edge">
<title>q_latent&#45;&gt;prefill</title>
<path fill="none" stroke="#667085" stroke-width="1.3" d="M292,-1120.01C292,-1120.01 292,-1077.36 292,-1077.36"/>
<polygon fill="#667085" stroke="#667085" stroke-width="1.3" points="294.52,-1077.36 292,-1070.16 289.48,-1077.36 294.52,-1077.36"/>
<text xml:space="preserve" text-anchor="middle" x="318.87" y="-1094.9" font-family="Microsoft YaHei" font-size="9.00" fill="#475467">普通 extend</text>
</g>
<!-- decode -->
<g id="node16" class="node">
<title>decode</title>
<polygon fill="#eaf4f8" stroke="none" points="313.94,-842.4 313.94,-936.4 474.06,-936.4 474.06,-842.4 313.94,-842.4"/>
<polygon fill="none" stroke="#2f80a0" points="313.94,-909.2 313.94,-936.4 474.06,-936.4 474.06,-909.2 313.94,-909.2"/>
<text xml:space="preserve" text-anchor="start" x="346.8" y="-920.5" font-family="Microsoft YaHei" font-weight="bold" font-size="11.00" fill="#17202a">Decode: MLA_NPU</text>
<polygon fill="none" stroke="#2f80a0" points="313.94,-842.4 313.94,-909.2 474.06,-909.2 474.06,-842.4 313.94,-842.4"/>
<text xml:space="preserve" text-anchor="start" x="333.36" y="-891.2" font-family="Microsoft YaHei" font-size="11.00" fill="#17202a">q_nope x w_kc [5,192,512]</text>
<text xml:space="preserve" text-anchor="start" x="323.99" y="-878" font-family="Microsoft YaHei" font-size="11.00" fill="#17202a">Qabs [B,5,512] + q_pe [B,5,64]</text>
<text xml:space="preserve" text-anchor="start" x="320.94" y="-864.8" font-family="Microsoft YaHei" font-size="11.00" fill="#17202a">paged MLA &#45;&gt; Olatent [B,5,512]</text>
<text xml:space="preserve" text-anchor="start" x="322.16" y="-851.6" font-family="Microsoft YaHei" font-size="11.00" fill="#17202a">x w_vc [5,512,256] &#45;&gt; [B,5,256]</text>
</g>
<!-- q_latent&#45;&gt;decode -->
<g id="edge14" class="edge">
<title>q_latent&#45;&gt;decode</title>
<path fill="none" stroke="#667085" stroke-width="1.3" d="M377.02,-1120.22C377.02,-1120.22 377.02,-945.54 377.02,-945.54"/>
<polygon fill="#667085" stroke="#667085" stroke-width="1.3" points="379.54,-945.54 377.02,-938.34 374.5,-945.54 379.54,-945.54"/>
<text xml:space="preserve" text-anchor="middle" x="420.99" y="-1025.5" font-family="Microsoft YaHei" font-size="9.00" fill="#475467">decode / verify</text>
</g>
<!-- kvcache -->
<g id="node14" class="node">
<title>kvcache</title>
<polygon fill="#fff0ec" stroke="none" points="467.54,-981.2 467.54,-1075.2 610.46,-1075.2 610.46,-981.2 467.54,-981.2"/>
<polygon fill="none" stroke="#c8705a" points="467.54,-1048 467.54,-1075.2 610.46,-1075.2 610.46,-1048 467.54,-1048"/>
<text xml:space="preserve" text-anchor="start" x="474.83" y="-1059.3" font-family="Microsoft YaHei" font-weight="bold" font-size="11.00" fill="#17202a">NPUMLATokenToKVPool</text>
<polygon fill="none" stroke="#c8705a" points="467.54,-981.2 467.54,-1048 610.46,-1048 610.46,-981.2 467.54,-981.2"/>
<text xml:space="preserve" text-anchor="start" x="505.97" y="-1030" font-family="Microsoft YaHei" font-size="11.00" fill="#17202a">page_size=128</text>
<text xml:space="preserve" text-anchor="start" x="482.89" y="-1016.8" font-family="Microsoft YaHei" font-size="11.00" fill="#17202a">cKV: [47,P+1,128,1,512]</text>
<text xml:space="preserve" text-anchor="start" x="480.75" y="-1003.6" font-family="Microsoft YaHei" font-size="11.00" fill="#17202a">k_rope: [47,P+1,128,1,64]</text>
<text xml:space="preserve" text-anchor="start" x="474.54" y="-990.4" font-family="Microsoft YaHei" font-size="11.00" fill="#17202a">block_tables [B,max_blocks]</text>
</g>
<!-- kv_latent&#45;&gt;kvcache -->
<g id="edge11" class="edge">
<title>kv_latent&#45;&gt;kvcache</title>
<path fill="none" stroke="#c8705a" stroke-width="1.3" d="M539,-1126.85C539,-1126.85 539,-1084.28 539,-1084.28"/>
<polygon fill="#c8705a" stroke="#c8705a" stroke-width="1.3" points="541.52,-1084.28 539,-1077.08 536.48,-1084.28 541.52,-1084.28"/>
<text xml:space="preserve" text-anchor="middle" x="551.86" y="-1094.9" font-family="Microsoft YaHei" font-size="9.00" fill="#475467">写入压缩 cache</text>
</g>
<!-- kv_latent&#45;&gt;prefill -->
<g id="edge13" class="edge">
<title>kv_latent&#45;&gt;prefill</title>
<path fill="none" stroke="#667085" stroke-width="1.3" d="M435.54,-1126.76C435.54,-1090.22 435.54,-1042 435.54,-1042 435.54,-1042 363.29,-1042 363.29,-1042"/>
<polygon fill="#667085" stroke="#667085" stroke-width="1.3" points="363.29,-1039.48 356.09,-1042 363.29,-1044.52 363.29,-1039.48"/>
</g>
<!-- kvcache&#45;&gt;decode -->
<g id="edge15" class="edge">
<title>kvcache&#45;&gt;decode</title>
<path fill="none" stroke="#c8705a" stroke-width="1.3" d="M467.58,-1015C458.08,-1015 451.54,-1015 451.54,-1015 451.54,-1015 451.54,-945.34 451.54,-945.34"/>
<polygon fill="#c8705a" stroke="#c8705a" stroke-width="1.3" points="454.06,-945.34 451.54,-938.14 449.02,-945.34 454.06,-945.34"/>
<text xml:space="preserve" text-anchor="middle" x="498.61" y="-956.1" font-family="Microsoft YaHei" font-size="9.00" fill="#475467">paged read</text>
</g>
<!-- oproj -->
<g id="node17" class="node">
<title>oproj</title>
<polygon fill="#fff8de" stroke="none" points="286.27,-726.6 286.27,-807.4 409.73,-807.4 409.73,-726.6 286.27,-726.6"/>
<polygon fill="none" stroke="#d69e2e" points="286.27,-780.2 286.27,-807.4 409.73,-807.4 409.73,-780.2 286.27,-780.2"/>
<text xml:space="preserve" text-anchor="start" x="293.77" y="-791.5" font-family="Microsoft YaHei" font-weight="bold" font-size="11.00" fill="#17202a">o_proj（Row Parallel）</text>
<polygon fill="none" stroke="#d69e2e" points="286.27,-726.6 286.27,-780.2 409.73,-780.2 409.73,-726.6 286.27,-726.6"/>
<text xml:space="preserve" text-anchor="start" x="298.66" y="-762.2" font-family="Microsoft YaHei" font-size="11.00" fill="#17202a">local input [T/B,1280]</text>
<text xml:space="preserve" text-anchor="start" x="302.33" y="-749" font-family="Microsoft YaHei" font-size="11.00" fill="#17202a">local W [2048,1280]</text>
<text xml:space="preserve" text-anchor="start" x="293.27" y="-735.8" font-family="Microsoft YaHei" font-size="11.00" fill="#17202a">TP reduce &#45;&gt; [T/B,2048]</text>
</g>
<!-- prefill&#45;&gt;oproj -->
<g id="edge16" class="edge">
<title>prefill&#45;&gt;oproj</title>
<path fill="none" stroke="#667085" stroke-width="1.3" d="M300.11,-987.96C300.11,-987.96 300.11,-816.45 300.11,-816.45"/>
<polygon fill="#667085" stroke="#667085" stroke-width="1.3" points="302.63,-816.45 300.11,-809.25 297.59,-816.45 302.63,-816.45"/>
</g>
<!-- decode&#45;&gt;oproj -->
<g id="edge17" class="edge">
<title>decode&#45;&gt;oproj</title>
<path fill="none" stroke="#667085" stroke-width="1.3" d="M361.83,-842.43C361.83,-842.43 361.83,-816.44 361.83,-816.44"/>
<polygon fill="#667085" stroke="#667085" stroke-width="1.3" points="364.35,-816.44 361.83,-809.24 359.31,-816.44 364.35,-816.44"/>
</g>
<!-- norm2 -->
<g id="node18" class="node">
<title>norm2</title>
<polygon fill="#f2eff8" stroke="none" points="254.6,-637.2 254.6,-691.6 441.4,-691.6 441.4,-637.2 254.6,-637.2"/>
<polygon fill="none" stroke="#7a6f9b" points="254.6,-664.4 254.6,-691.6 441.4,-691.6 441.4,-664.4 254.6,-664.4"/>
<text xml:space="preserve" text-anchor="start" x="261.6" y="-675.7" font-family="Microsoft YaHei" font-weight="bold" font-size="11.00" fill="#17202a">Residual + post&#45;attention RMSNorm</text>
<polygon fill="none" stroke="#7a6f9b" points="254.6,-637.2 254.6,-664.4 441.4,-664.4 441.4,-637.2 254.6,-637.2"/>
<text xml:space="preserve" text-anchor="start" x="291.13" y="-646.4" font-family="Microsoft YaHei" font-size="11.00" fill="#17202a">[T/B,2048] &#45;&gt; [T/B,2048]</text>
</g>
<!-- oproj&#45;&gt;norm2 -->
<g id="edge18" class="edge">
<title>oproj&#45;&gt;norm2</title>
<path fill="none" stroke="#667085" stroke-width="1.3" d="M348,-726.74C348,-726.74 348,-700.75 348,-700.75"/>
<polygon fill="#667085" stroke="#667085" stroke-width="1.3" points="350.52,-700.75 348,-693.55 345.48,-700.75 350.52,-700.75"/>
</g>
<!-- dense -->
<g id="node19" class="node">
<title>dense</title>
<polygon fill="#eaf4f8" stroke="none" points="16.35,-478.6 16.35,-585.8 215.65,-585.8 215.65,-478.6 16.35,-478.6"/>
<polygon fill="none" stroke="#2f80a0" points="16.35,-558.6 16.35,-585.8 215.65,-585.8 215.65,-558.6 16.35,-558.6"/>
<text xml:space="preserve" text-anchor="start" x="68.8" y="-569.9" font-family="Microsoft YaHei" font-weight="bold" font-size="11.00" fill="#17202a">Layer 0 Dense MLP</text>
<polygon fill="none" stroke="#2f80a0" points="16.35,-478.6 16.35,-558.6 215.65,-558.6 215.65,-478.6 16.35,-478.6"/>
<text xml:space="preserve" text-anchor="start" x="51.55" y="-540.6" font-family="Microsoft YaHei" font-size="11.00" fill="#17202a">gate_up local W [5120,2048]</text>
<text xml:space="preserve" text-anchor="start" x="23.35" y="-527.4" font-family="Microsoft YaHei" font-size="11.00" fill="#17202a">Y [T,5120] = gate [T,2560] + up [T,2560]</text>
<text xml:space="preserve" text-anchor="start" x="69.06" y="-514.2" font-family="Microsoft YaHei" font-size="11.00" fill="#17202a">SwiGLU &#45;&gt; [T,2560]</text>
<text xml:space="preserve" text-anchor="start" x="56.74" y="-501" font-family="Microsoft YaHei" font-size="11.00" fill="#17202a">down local W [2048,2560]</text>
<text xml:space="preserve" text-anchor="start" x="66.47" y="-487.8" font-family="Microsoft YaHei" font-size="11.00" fill="#17202a">TP reduce &#45;&gt; [T,2048]</text>
</g>
<!-- norm2&#45;&gt;dense -->
<g id="edge19" class="edge">
<title>norm2&#45;&gt;dense</title>
<path fill="none" stroke="#667085" stroke-width="1.3" d="M254.74,-664C202.6,-664 148.01,-664 148.01,-664 148.01,-664 148.01,-594.6 148.01,-594.6"/>
<polygon fill="#667085" stroke="#667085" stroke-width="1.3" points="150.53,-594.6 148.01,-587.4 145.49,-594.6 150.53,-594.6"/>
<text xml:space="preserve" text-anchor="middle" x="219.37" y="-612.1" font-family="Microsoft YaHei" font-size="9.00" fill="#475467">layer 0</text>
</g>
<!-- moe -->
<g id="node20" class="node">
<title>moe</title>
<polygon fill="#edf7ee" stroke="none" points="235.4,-472 235.4,-592.4 460.6,-592.4 460.6,-472 235.4,-472"/>
<polygon fill="none" stroke="#4e8b57" points="235.4,-565.2 235.4,-592.4 460.6,-592.4 460.6,-565.2 235.4,-565.2"/>
<text xml:space="preserve" text-anchor="start" x="288.88" y="-576.5" font-family="Microsoft YaHei" font-weight="bold" font-size="11.00" fill="#17202a">Layers 1&#45;46 Routed MoE</text>
<polygon fill="none" stroke="#4e8b57" points="235.4,-472 235.4,-565.2 460.6,-565.2 460.6,-472 235.4,-472"/>
<text xml:space="preserve" text-anchor="start" x="257.22" y="-547.2" font-family="Microsoft YaHei" font-size="11.00" fill="#17202a">router W [64,2048] FP32 &#45;&gt; logits [T,64]</text>
<text xml:space="preserve" text-anchor="start" x="291.13" y="-534" font-family="Microsoft YaHei" font-size="11.00" fill="#17202a">top&#45;k &#45;&gt; ids/weights [T,4]</text>
<text xml:space="preserve" text-anchor="start" x="283.07" y="-520.8" font-family="Microsoft YaHei" font-size="11.00" fill="#17202a">TP4 NPU w13 [64,2048,768]</text>
<text xml:space="preserve" text-anchor="start" x="285.82" y="-507.6" font-family="Microsoft YaHei" font-size="11.00" fill="#17202a">TP4 NPU w2 [64,384,2048]</text>
<text xml:space="preserve" text-anchor="start" x="242.4" y="-494.4" font-family="Microsoft YaHei" font-size="11.00" fill="#17202a">routing + GMM + SwiGLU + GMM + combine</text>
<text xml:space="preserve" text-anchor="start" x="297.75" y="-481.2" font-family="Microsoft YaHei" font-size="11.00" fill="#17202a">routed output [T,2048]</text>
</g>
<!-- norm2&#45;&gt;moe -->
<g id="edge20" class="edge">
<title>norm2&#45;&gt;moe</title>
<path fill="none" stroke="#667085" stroke-width="1.3" d="M348,-637.33C348,-637.33 348,-601.41 348,-601.41"/>
<polygon fill="#667085" stroke="#667085" stroke-width="1.3" points="350.52,-601.41 348,-594.21 345.48,-601.41 350.52,-601.41"/>
<text xml:space="preserve" text-anchor="middle" x="368.12" y="-612.1" font-family="Microsoft YaHei" font-size="9.00" fill="#475467">layers 1&#45;46</text>
</g>
<!-- shared -->
<g id="node21" class="node">
<title>shared</title>
<polygon fill="#edf7ee" stroke="none" points="480.3,-485.2 480.3,-579.2 617.7,-579.2 617.7,-485.2 480.3,-485.2"/>
<polygon fill="none" stroke="#4e8b57" points="480.3,-552 480.3,-579.2 617.7,-579.2 617.7,-552 480.3,-552"/>
<text xml:space="preserve" text-anchor="start" x="489.88" y="-563.3" font-family="Microsoft YaHei" font-weight="bold" font-size="11.00" fill="#17202a">Shared Expert（独立路径）</text>
<polygon fill="none" stroke="#4e8b57" points="480.3,-485.2 480.3,-552 617.7,-552 617.7,-485.2 480.3,-485.2"/>
<text xml:space="preserve" text-anchor="start" x="487.3" y="-534" font-family="Microsoft YaHei" font-size="11.00" fill="#17202a">gate_up local W [768,2048]</text>
<text xml:space="preserve" text-anchor="start" x="511.11" y="-520.8" font-family="Microsoft YaHei" font-size="11.00" fill="#17202a">SwiGLU [T,384]</text>
<text xml:space="preserve" text-anchor="start" x="492.49" y="-507.6" font-family="Microsoft YaHei" font-size="11.00" fill="#17202a">down local W [2048,384]</text>
<text xml:space="preserve" text-anchor="start" x="498.44" y="-494.4" font-family="Microsoft YaHei" font-size="11.00" fill="#17202a">shared output [T,2048]</text>
</g>
<!-- norm2&#45;&gt;shared -->
<g id="edge21" class="edge">
<title>norm2&#45;&gt;shared</title>
<path fill="none" stroke="#667085" stroke-width="1.3" d="M441.2,-664C492.3,-664 545.38,-664 545.38,-664 545.38,-664 545.38,-588.21 545.38,-588.21"/>
<polygon fill="#667085" stroke="#667085" stroke-width="1.3" points="547.9,-588.21 545.38,-581.01 542.86,-588.21 547.9,-588.21"/>
<text xml:space="preserve" text-anchor="middle" x="501.12" y="-612.1" font-family="Microsoft YaHei" font-size="9.00" fill="#475467">layers 1&#45;46</text>
</g>
<!-- dec_out -->
<g id="node22" class="node">
<title>dec_out</title>
<polygon fill="#f8f9fb" stroke="none" points="260.58,-359.6 260.58,-427.2 435.42,-427.2 435.42,-359.6 260.58,-359.6"/>
<polygon fill="none" stroke="#98a2b3" points="260.58,-400 260.58,-427.2 435.42,-427.2 435.42,-400 260.58,-400"/>
<text xml:space="preserve" text-anchor="start" x="319.12" y="-411.3" font-family="Microsoft YaHei" font-weight="bold" font-size="11.00" fill="#17202a">layer output</text>
<polygon fill="none" stroke="#98a2b3" points="260.58,-359.6 260.58,-400 435.42,-400 435.42,-359.6 260.58,-359.6"/>
<text xml:space="preserve" text-anchor="start" x="267.58" y="-382" font-family="Microsoft YaHei" font-size="11.00" fill="#17202a">routed + shared + residual/collective</text>
<text xml:space="preserve" text-anchor="start" x="323.41" y="-368.8" font-family="Microsoft YaHei" font-size="11.00" fill="#17202a">[T/B,2048]</text>
</g>
<!-- dense&#45;&gt;dec_out -->
<g id="edge22" class="edge">
<title>dense&#45;&gt;dec_out</title>
<path fill="none" stroke="#667085" stroke-width="1.3" d="M116,-478.78C116,-439.52 116,-393 116,-393 116,-393 251.45,-393 251.45,-393"/>
<polygon fill="#667085" stroke="#667085" stroke-width="1.3" points="251.45,-395.52 258.65,-393 251.45,-390.48 251.45,-395.52"/>
</g>
<!-- moe&#45;&gt;dec_out -->
<g id="edge23" class="edge">
<title>moe&#45;&gt;dec_out</title>
<path fill="none" stroke="#667085" stroke-width="1.3" d="M348,-472.13C348,-472.13 348,-435.98 348,-435.98"/>
<polygon fill="#667085" stroke="#667085" stroke-width="1.3" points="350.52,-435.98 348,-428.78 345.48,-435.98 350.52,-435.98"/>
<text xml:space="preserve" text-anchor="middle" x="359.5" y="-446.9" font-family="Microsoft YaHei" font-size="9.00" fill="#475467">routed</text>
</g>
<!-- shared&#45;&gt;dec_out -->
<g id="edge24" class="edge">
<title>shared&#45;&gt;dec_out</title>
<path fill="none" stroke="#667085" stroke-width="1.3" d="M549,-485.46C549,-445.02 549,-393 549,-393 549,-393 444.45,-393 444.45,-393"/>
<polygon fill="#667085" stroke="#667085" stroke-width="1.3" points="444.45,-390.48 437.25,-393 444.45,-395.52 444.45,-390.48"/>
<text xml:space="preserve" text-anchor="middle" x="483.74" y="-446.9" font-family="Microsoft YaHei" font-size="9.00" fill="#475467">shared</text>
</g>
<!-- draft_in -->
<g id="node23" class="node">
<title>draft_in</title>
<polygon fill="#fff3e8" stroke="none" points="279.44,-221.2 279.44,-288.8 416.56,-288.8 416.56,-221.2 279.44,-221.2"/>
<polygon fill="none" stroke="#b26a3c" points="279.44,-261.6 279.44,-288.8 416.56,-288.8 416.56,-261.6 279.44,-261.6"/>
<text xml:space="preserve" text-anchor="start" x="325.55" y="-272.9" font-family="Microsoft YaHei" font-weight="bold" font-size="11.00" fill="#17202a">Draft 输入</text>
<polygon fill="none" stroke="#b26a3c" points="279.44,-221.2 279.44,-261.6 416.56,-261.6 416.56,-221.2 279.44,-221.2"/>
<text xml:space="preserve" text-anchor="start" x="286.44" y="-243.6" font-family="Microsoft YaHei" font-size="11.00" fill="#17202a">token embedding [Td,2048]</text>
<text xml:space="preserve" text-anchor="start" x="295.61" y="-230.4" font-family="Microsoft YaHei" font-size="11.00" fill="#17202a">target hidden [Td,2048]</text>
</g>
<!-- dec_out&#45;&gt;draft_in -->
<!-- ehproj -->
<g id="node24" class="node">
<title>ehproj</title>
<polygon fill="#fff3e8" stroke="none" points="277.56,-118.6 277.56,-186.2 418.44,-186.2 418.44,-118.6 277.56,-118.6"/>
<polygon fill="none" stroke="#b26a3c" points="277.56,-159 277.56,-186.2 418.44,-186.2 418.44,-159 277.56,-159"/>
<text xml:space="preserve" text-anchor="start" x="286.74" y="-170.3" font-family="Microsoft YaHei" font-weight="bold" font-size="11.00" fill="#17202a">enorm + hnorm + eh_proj</text>
<polygon fill="none" stroke="#b26a3c" points="277.56,-118.6 277.56,-159 418.44,-159 418.44,-118.6 277.56,-118.6"/>
<text xml:space="preserve" text-anchor="start" x="310.13" y="-141" font-family="Microsoft YaHei" font-size="11.00" fill="#17202a">concat [Td,4096]</text>
<text xml:space="preserve" text-anchor="start" x="284.56" y="-127.8" font-family="Microsoft YaHei" font-size="11.00" fill="#17202a">W [2048,4096] &#45;&gt; [Td,2048]</text>
</g>
<!-- draft_in&#45;&gt;ehproj -->
<g id="edge25" class="edge">
<title>draft_in&#45;&gt;ehproj</title>
<path fill="none" stroke="#667085" stroke-width="1.3" d="M348,-221.4C348,-221.4 348,-195.24 348,-195.24"/>
<polygon fill="#667085" stroke="#667085" stroke-width="1.3" points="350.52,-195.24 348,-188.04 345.48,-195.24 350.52,-195.24"/>
</g>
<!-- draft_layer -->
<g id="node25" class="node">
<title>draft_layer</title>
<polygon fill="#fff3e8" stroke="none" points="253.09,-16 253.09,-83.6 442.91,-83.6 442.91,-16 253.09,-16"/>
<polygon fill="none" stroke="#b26a3c" points="253.09,-56.4 253.09,-83.6 442.91,-83.6 442.91,-56.4 253.09,-56.4"/>
<text xml:space="preserve" text-anchor="start" x="260.09" y="-67.7" font-family="Microsoft YaHei" font-weight="bold" font-size="11.00" fill="#17202a">1 x Decoder Layer + shared LM head</text>
<polygon fill="none" stroke="#b26a3c" points="253.09,-16 253.09,-56.4 442.91,-56.4 442.91,-16 253.09,-16"/>
<text xml:space="preserve" text-anchor="start" x="295" y="-38.4" font-family="Microsoft YaHei" font-size="11.00" fill="#17202a">draft logits [Td,154880]</text>
<text xml:space="preserve" text-anchor="start" x="295.77" y="-25.2" font-family="Microsoft YaHei" font-size="11.00" fill="#17202a">tree build / target verify</text>
</g>
<!-- ehproj&#45;&gt;draft_layer -->
<g id="edge26" class="edge">
<title>ehproj&#45;&gt;draft_layer</title>
<path fill="none" stroke="#667085" stroke-width="1.3" d="M348,-118.8C348,-118.8 348,-92.64 348,-92.64"/>
<polygon fill="#667085" stroke="#667085" stroke-width="1.3" points="350.52,-92.64 348,-85.44 345.48,-92.64 350.52,-92.64"/>
</g>
</g>
</svg>
